<?xml version="1.0" encoding="UTF-8" standalone="no"?>
<!-- Created with Inkscape (http://www.inkscape.org/) -->

<svg
   xmlns:dc="http://purl.org/dc/elements/1.1/"
   xmlns:cc="http://creativecommons.org/ns#"
   xmlns:rdf="http://www.w3.org/1999/02/22-rdf-syntax-ns#"
   xmlns:svg="http://www.w3.org/2000/svg"
   xmlns="http://www.w3.org/2000/svg"
   xmlns:sodipodi="http://sodipodi.sourceforge.net/DTD/sodipodi-0.dtd"
   xmlns:inkscape="http://www.inkscape.org/namespaces/inkscape"
   width="400.00409"
   height="69.882416"
   viewBox="0 0 105.83441 18.489723"
   version="1.1"
   id="svg4848"
   inkscape:version="0.92.4 (5da689c313, 2019-01-14)"
   sodipodi:docname="gematik Logo 2020.svg">
  <defs
     id="defs4842" />
  <sodipodi:namedview
     id="base"
     pagecolor="#ffffff"
     bordercolor="#666666"
     borderopacity="1.0"
     inkscape:pageopacity="0.0"
     inkscape:pageshadow="2"
     inkscape:zoom="3.0099691"
     inkscape:cx="200.00203"
     inkscape:cy="34.941217"
     inkscape:document-units="px"
     inkscape:current-layer="layer1"
     showgrid="false"
     units="px"
     fit-margin-top="0"
     fit-margin-left="0"
     fit-margin-right="0"
     fit-margin-bottom="0"
     inkscape:window-width="1920"
     inkscape:window-height="1001"
     inkscape:window-x="-9"
     inkscape:window-y="-9"
     inkscape:window-maximized="1" />
  <metadata
     id="metadata4845">
    <rdf:RDF>
      <cc:Work
         rdf:about="">
        <dc:format>image/svg+xml</dc:format>
        <dc:type
           rdf:resource="http://purl.org/dc/dcmitype/StillImage" />
        <dc:title></dc:title>
      </cc:Work>
    </rdf:RDF>
  </metadata>
  <g
     inkscape:label="Ebene 1"
     inkscape:groupmode="layer"
     id="layer1"
     transform="translate(150.26461,-138.37006)">
    <path
       d="m -129.60459,144.6123 h -11.54992 a 1.012675,1.012675 0 0 1 0,-2.02535 h 11.54992 a 1.012675,1.012675 0 0 1 0,2.02535 z"
       id="path8"
       inkscape:connector-curvature="0"
       style="stroke-width:0.30474713" />
    <path
       class="cls-1"
       d="m -129.60459,148.79678 h -15.59665 a 1.012675,1.012675 0 0 1 0,-2.02535 h 15.59665 a 1.012675,1.012675 0 0 1 0,2.02535 z"
       id="path10"
       inkscape:connector-curvature="0"
       style="fill:#e10000;stroke-width:0.30474713" />
    <path
       class="cls-2"
       d="m -129.60459,152.98218 h -19.64735 a 1.012675,1.012675 0 0 1 0,-2.02535 h 19.64735 a 1.012675,1.012675 0 0 1 0,2.02535 z"
       id="path12"
       inkscape:connector-curvature="0"
       style="fill:#ffcc00;stroke-width:0.30474713" />
    <path
       class="cls-3"
       d="m -51.542387,146.76076 h -0.08015 v -8.18703 h -2.133225 v 14.2256 h 2.13323 v -4.10708 h 0.06095 l 4.246038,4.10434 h 2.885346 l -5.304428,-5.16242 5.264201,-4.59193 h -2.866451 z m -7.679628,6.03583 h 2.13323 v -9.75435 h -2.13323 z m 1.055643,-14.42643 a 1.4697954,1.4697954 0 0 0 -1.484118,1.50301 1.4417587,1.4417587 0 0 0 1.484118,1.48412 1.4573008,1.4573008 0 0 0 1.503013,-1.48412 1.4856423,1.4856423 0 0 0 -1.503013,-1.50301 m -7.37488,6.60387 h 3.739856 v -1.93179 h -3.741076 v -2.92557 h -2.133229 v 9.0845 c 0,2.60133 1.299137,3.79899 3.495754,3.79899 a 5.1840536,5.1840536 0 0 0 2.986522,-0.9752 l -0.833179,-1.70658 a 3.9294096,3.9294096 0 0 1 -1.971713,0.67044 c -0.853292,0 -1.542935,-0.52782 -1.542935,-1.82848 z m -9.289303,6.35977 c -1.604494,0 -2.13323,-0.65094 -2.13323,-1.27994 0,-0.629 0.447369,-1.21898 1.910155,-1.361 l 2.681776,-0.26513 v 2.55987 a 8.1007886,8.1007886 0 0 1 -2.45931,0.34559 m 0.203571,-8.49514 a 7.645801,7.645801 0 0 0 -4.125362,1.13855 l 0.792342,1.72821 a 6.9177602,6.9177602 0 0 1 3.252262,-0.97519 c 1.484118,0 2.335887,0.56774 2.335887,1.86994 v 0.16333 l -2.419083,0.2438 c -2.681775,0.26514 -4.3076,1.21899 -4.3076,3.02706 0,1.78977 1.24032,2.96579 4.369159,2.96579 1.586209,0 3.413168,-0.3858 4.490145,-0.9566 v -5.5662 c 0,-2.39745 -1.604799,-3.61644 -4.388359,-3.63808 m -10.689007,0 a 6.8656483,6.8656483 0 0 0 -3.496059,0.9752 c -0.771315,-0.65094 -1.869928,-0.9752 -3.190398,-0.9752 -1.626135,0 -3.372943,0.65125 -4.289016,1.60481 v 8.35312 h 2.133238 l -0.02131,-7.23318 a 3.5960162,3.5960162 0 0 1 2.377026,-0.7314 c 1.340887,0 2.133229,0.79235 2.133229,2.17529 v 5.79203 h 2.133231 v -5.79477 a 5.1837489,5.1837489 0 0 0 -0.182848,-1.42256 4.0567939,4.0567939 0 0 1 2.334362,-0.75273 c 1.279938,0 2.13323,0.67045 2.13323,2.17529 v 5.79203 h 2.133231 v -5.79203 c 0.01071,-2.76192 -1.594134,-4.1659 -4.195456,-4.1659 m -20.401291,4.10708 a 2.6208255,2.6208255 0 0 1 2.7031,-2.25512 c 1.3607,0 2.2341,0.79233 2.4779,2.25512 z m 7.353537,0.81155 c 0,-2.98653 -1.889427,-4.91863 -4.612947,-4.91863 -2.86676,0 -4.97775,2.01133 -4.97775,4.99786 0,3.23032 2.19418,5.16241 5.1222,5.16241 a 5.9968142,5.9968142 0 0 0 4.002548,-1.361 l -1.055648,-1.68768 a 3.9479992,3.9479992 0 0 1 -2.82349,1.21898 c -1.42255,0 -2.88534,-0.71006 -3.06758,-2.62296 h 7.376708 c 0.01613,-0.24105 0.03478,-0.52477 0.03478,-0.7902 m -12.067988,-3.31108 c -1.25921,-1.27994 -3.12915,-1.6048 -4.34783,-1.6048 -3.51495,0 -5.58845,2.03328 -5.58845,5.10086 0,2.92557 1.97172,4.85676 4.79519,4.85676 0.81186,0 1.25922,-0.38551 1.25922,-1.03615 0,-0.60949 -0.44737,-0.95629 -1.25922,-0.95629 -1.56426,0 -2.66288,-1.1172 -2.66288,-2.86646 0,-1.88943 1.20042,-3.11025 3.33272,-3.11025 0.69117,0 1.68769,0.18285 2.25513,0.7314 l -0.0213,7.11523 c 0,1.50302 -1.361,2.19418 -3.04747,2.19418 a 5.3736063,5.3736063 0 0 1 -2.76467,-0.79234 c -0.83317,-0.40745 -1.64563,-0.0217 -1.64563,0.77132 0,1.34241 2.43798,2.01133 4.43102,2.01133 2.96549,0 5.2642,-1.29914 5.2642,-4.18723 v -8.22817 z"
       id="path14"
       inkscape:connector-curvature="0"
       style="fill:#000e52;stroke-width:0.30474713" />
  </g>
</svg>
